<mxfile host="app.diagrams.net" modified="2022-03-30T03:38:38.983Z" agent="5.0 (Windows NT 10.0; Win64; x64) AppleWebKit/537.36 (KHTML, like Gecko) Chrome/99.0.4844.84 Safari/537.36" etag="XKo3Rx3-X3B77AUPeblk" version="17.1.3" type="github">
  <diagram id="sov3_w4q9PXKTSvUo2S0" name="Page-1">
    <mxGraphModel dx="1422" dy="762" grid="1" gridSize="10" guides="1" tooltips="1" connect="1" arrows="1" fold="1" page="1" pageScale="1" pageWidth="2339" pageHeight="3300" math="0" shadow="0">
      <root>
        <mxCell id="0" />
        <mxCell id="1" parent="0" />
        <mxCell id="1sc9Xd_hxIj9VAOpr5T9-1" value="&lt;b&gt;&lt;font style=&quot;font-size: 14px&quot;&gt;Fcous&lt;/font&gt;&lt;/b&gt;" style="rounded=1;whiteSpace=wrap;html=1;fillColor=#ffe6cc;strokeColor=#d79b00;gradientColor=none;" vertex="1" parent="1">
          <mxGeometry x="240" y="430" width="60" height="50" as="geometry" />
        </mxCell>
        <mxCell id="1sc9Xd_hxIj9VAOpr5T9-5" value="&lt;b&gt;&lt;font style=&quot;font-size: 14px&quot;&gt;Conv3BN&lt;/font&gt;&lt;/b&gt;" style="rounded=1;whiteSpace=wrap;html=1;fillColor=#d0cee2;strokeColor=#56517e;" vertex="1" parent="1">
          <mxGeometry x="300" y="430" width="70" height="50" as="geometry" />
        </mxCell>
        <mxCell id="1sc9Xd_hxIj9VAOpr5T9-6" value="&lt;b&gt;&lt;font style=&quot;font-size: 14px&quot;&gt;BCSPI&lt;/font&gt;&lt;/b&gt;" style="rounded=1;whiteSpace=wrap;html=1;fillColor=#b0e3e6;strokeColor=#0e8088;" vertex="1" parent="1">
          <mxGeometry x="370" y="430" width="70" height="50" as="geometry" />
        </mxCell>
        <mxCell id="1sc9Xd_hxIj9VAOpr5T9-16" style="edgeStyle=orthogonalEdgeStyle;rounded=0;orthogonalLoop=1;jettySize=auto;html=1;entryX=0;entryY=0.5;entryDx=0;entryDy=0;fontSize=14;" edge="1" parent="1" source="1sc9Xd_hxIj9VAOpr5T9-7" target="1sc9Xd_hxIj9VAOpr5T9-10">
          <mxGeometry relative="1" as="geometry" />
        </mxCell>
        <mxCell id="1sc9Xd_hxIj9VAOpr5T9-7" value="&lt;b&gt;&lt;font style=&quot;font-size: 14px&quot;&gt;Conv3BN&lt;/font&gt;&lt;/b&gt;" style="rounded=1;whiteSpace=wrap;html=1;fillColor=#d0cee2;strokeColor=#56517e;" vertex="1" parent="1">
          <mxGeometry x="440" y="430" width="70" height="50" as="geometry" />
        </mxCell>
        <mxCell id="1sc9Xd_hxIj9VAOpr5T9-10" value="&lt;b&gt;&lt;font style=&quot;font-size: 14px&quot;&gt;BCSP3&lt;/font&gt;&lt;/b&gt;" style="rounded=1;whiteSpace=wrap;html=1;fillColor=#b0e3e6;strokeColor=#0e8088;" vertex="1" parent="1">
          <mxGeometry x="550" y="430" width="70" height="50" as="geometry" />
        </mxCell>
        <mxCell id="1sc9Xd_hxIj9VAOpr5T9-17" style="edgeStyle=orthogonalEdgeStyle;rounded=0;orthogonalLoop=1;jettySize=auto;html=1;exitX=1;exitY=0.5;exitDx=0;exitDy=0;entryX=0;entryY=0.5;entryDx=0;entryDy=0;fontSize=14;" edge="1" parent="1" source="1sc9Xd_hxIj9VAOpr5T9-11" target="1sc9Xd_hxIj9VAOpr5T9-12">
          <mxGeometry relative="1" as="geometry" />
        </mxCell>
        <mxCell id="1sc9Xd_hxIj9VAOpr5T9-11" value="&lt;b&gt;&lt;font style=&quot;font-size: 14px&quot;&gt;Conv3BN&lt;/font&gt;&lt;/b&gt;" style="rounded=1;whiteSpace=wrap;html=1;fillColor=#d0cee2;strokeColor=#56517e;" vertex="1" parent="1">
          <mxGeometry x="620" y="430" width="70" height="50" as="geometry" />
        </mxCell>
        <mxCell id="1sc9Xd_hxIj9VAOpr5T9-12" value="&lt;b&gt;&lt;font style=&quot;font-size: 14px&quot;&gt;BCSP3&lt;/font&gt;&lt;/b&gt;" style="rounded=1;whiteSpace=wrap;html=1;fillColor=#b0e3e6;strokeColor=#0e8088;" vertex="1" parent="1">
          <mxGeometry x="730" y="430" width="70" height="50" as="geometry" />
        </mxCell>
        <mxCell id="1sc9Xd_hxIj9VAOpr5T9-13" value="&lt;b&gt;&lt;font style=&quot;font-size: 14px&quot;&gt;Conv3BN&lt;/font&gt;&lt;/b&gt;" style="rounded=1;whiteSpace=wrap;html=1;fillColor=#d0cee2;strokeColor=#56517e;" vertex="1" parent="1">
          <mxGeometry x="800" y="430" width="70" height="50" as="geometry" />
        </mxCell>
        <mxCell id="1sc9Xd_hxIj9VAOpr5T9-14" value="&lt;b&gt;&lt;font style=&quot;font-size: 14px&quot;&gt;SPP&lt;/font&gt;&lt;/b&gt;" style="rounded=1;whiteSpace=wrap;html=1;fillColor=#d5e8d4;strokeColor=#82b366;gradientColor=none;" vertex="1" parent="1">
          <mxGeometry x="870" y="430" width="70" height="50" as="geometry" />
        </mxCell>
        <mxCell id="1sc9Xd_hxIj9VAOpr5T9-15" value="&lt;b&gt;&lt;font style=&quot;font-size: 14px&quot;&gt;BCSPI&lt;/font&gt;&lt;/b&gt;" style="rounded=1;whiteSpace=wrap;html=1;fillColor=#ffff88;strokeColor=#36393d;" vertex="1" parent="1">
          <mxGeometry x="940" y="430" width="70" height="50" as="geometry" />
        </mxCell>
        <mxCell id="1sc9Xd_hxIj9VAOpr5T9-18" value="&lt;b&gt;&lt;font style=&quot;font-size: 14px&quot;&gt;Conv&lt;/font&gt;&lt;/b&gt;" style="rounded=1;whiteSpace=wrap;html=1;fillColor=#cce5ff;strokeColor=#36393d;" vertex="1" parent="1">
          <mxGeometry x="1060" y="430" width="70" height="50" as="geometry" />
        </mxCell>
      </root>
    </mxGraphModel>
  </diagram>
</mxfile>
